<svg xmlns="http://www.w3.org/2000/svg" viewBox="0 0 200 220" width="200" height="220" role="img" aria-label="Squirrel">
  <g fill="#B5651D">
    <!-- Tail: S-curve rising from the rear, wrapping up and over -->
    <path d="M 96 202
             C 120 205, 145 192, 158 165
             C 171 138, 170 105, 152 80
             C 134 55, 105 45, 78 55
             C 51 65, 38 92, 44 118
             C 50 144, 72 160, 100 155
             C 114 152, 124 143, 126 130"
          fill="none" stroke="#B5651D" stroke-width="22" stroke-linecap="round" stroke-linejoin="round"/>

    <!-- Tail: vertical bar of the $, through the middle of the S -->
    <path d="M 100 50 L 100 160"
          fill="none" stroke="#B5651D" stroke-width="22" stroke-linecap="round"/>

    <!-- Body: sitting squirrel facing left -->
    <path fill-rule="evenodd" d="M 60 150
             C 62 156, 64 160, 62 164
             C 70 166, 78 172, 84 180
             C 90 188, 94 196, 96 202
             C 97 208, 96 212, 92 214
             C 86 216, 78 216, 72 212
             C 66 208, 62 202, 60 196
             C 58 190, 56 184, 54 178
             C 52 172, 50 168, 46 164
             C 40 160, 34 158, 30 156
             C 26 154, 24 151, 28 148
             C 34 145, 40 143, 46 142
             C 52 141, 56 145, 60 150 Z
             M 46 150 a 3 3 0 1 0 0.01 0 Z"/>
  </g>
</svg>
